<svg id="OBJECT" xmlns="http://www.w3.org/2000/svg" viewBox="0 0 512 512"><defs><style>.cls-1{fill:#011839;}.cls-2{fill:#7738c8;}</style></defs><path class="cls-1" d="M216,45a7.5,7.5,0,0,0,0-15H206a7.5,7.5,0,0,0,0,15Z"/><path class="cls-1" d="M311,83.65a7.5,7.5,0,0,0,7.5-7.5V52.5A22.52,22.52,0,0,0,296,30H271.81a22.46,22.46,0,0,0-21.34,15.38l-3.17,9.49A7.48,7.48,0,0,1,240.19,60H181.81a7.48,7.48,0,0,1-7.11-5.13l-3.17-9.49A22.46,22.46,0,0,0,150.19,30H126a22.52,22.52,0,0,0-22.5,22.5v407A22.52,22.52,0,0,0,126,482H296a22.52,22.52,0,0,0,22.5-22.5V376.15a7.5,7.5,0,0,0-15,0V459.5A7.5,7.5,0,0,1,296,467H126a7.5,7.5,0,0,1-7.5-7.5V52.5A7.5,7.5,0,0,1,126,45h24.19a7.48,7.48,0,0,1,7.11,5.13l3.17,9.49A22.46,22.46,0,0,0,181.81,75h58.38a22.46,22.46,0,0,0,21.34-15.38l3.17-9.49A7.48,7.48,0,0,1,271.81,45H296a7.5,7.5,0,0,1,7.5,7.5V76.15A7.5,7.5,0,0,0,311,83.65Z"/><path class="cls-1" d="M341,87.43a7.5,7.5,0,0,0,7.5-7.5V47.5A47.56,47.56,0,0,0,301,0H121A47.56,47.56,0,0,0,73.5,47.5v417A47.56,47.56,0,0,0,121,512H301a47.56,47.56,0,0,0,47.5-47.5V372.37a7.5,7.5,0,0,0-15,0V464.5A32.54,32.54,0,0,1,301,497H121a32.54,32.54,0,0,1-32.5-32.5V47.5A32.54,32.54,0,0,1,121,15H301a32.54,32.54,0,0,1,32.5,32.5V79.93A7.5,7.5,0,0,0,341,87.43Z"/><path class="cls-1" d="M156,392a25,25,0,0,0,0,50h20a25,25,0,0,0,0-50Zm30,25a10,10,0,0,1-10,10H156a10,10,0,0,1,0-20h20A10,10,0,0,1,186,417Z"/><path class="cls-1" d="M246,392a25,25,0,0,0,0,50h20a25,25,0,0,0,0-50Zm30,25a10,10,0,0,1-10,10H246a10,10,0,0,1,0-20h20A10,10,0,0,1,276,417Z"/><path class="cls-2" d="M367.72,263.54l-29.05-8.65L329,264.23a7.52,7.52,0,0,1-6.72,2c-12.58-2.57-29.17-18.36-31-20.15,0-.06-.11-.11-.17-.17-1.79-1.85-17.58-18.44-20.14-31a7.49,7.49,0,0,1,2-6.72l9.34-9.65-8.65-29-7.33-.74a6.69,6.69,0,0,0-6.33,3.07c-8.19,13.19-15.8,41.13,25.12,80.05a3.19,3.19,0,0,1,.26.26c38.93,40.93,66.86,33.31,80.05,25.12a6.67,6.67,0,0,0,3.07-6.33Z"/><path class="cls-2" d="M311,98.65a127.5,127.5,0,1,0,127.5,127.5A127.65,127.65,0,0,0,311,98.65Zm62.3,191.29a58.17,58.17,0,0,1-30.64,8.63c-17.83,0-41.24-7.89-68.05-36-50.27-47.9-35.91-85-27.4-98.7h0a21.81,21.81,0,0,1,20.61-10.09l9.07.93a12.33,12.33,0,0,1,10.6,8.78l9.59,32.2a12.37,12.37,0,0,1-3,12.14l-7.22,7.46c2.92,6.2,9.93,14.9,14.92,20.08,5.17,5,13.87,12,20.07,14.91l7.46-7.22a12.37,12.37,0,0,1,12.14-3l32.2,9.59a12.35,12.35,0,0,1,8.78,10.61l.93,9.07A21.79,21.79,0,0,1,373.3,289.94Z"/></svg>