<svg id="OBJECT" xmlns="http://www.w3.org/2000/svg" viewBox="0 0 512 512"><defs><style>.cls-1{fill:#011839;}.cls-2{fill:#7738c8;}</style></defs><path class="cls-1" d="M438.5,182.5C438.5,81.87,356.63,0,256,0S73.5,81.87,73.5,182.5c0,75.5,46.09,140.44,111.6,168.17l34.68,62.93a41.35,41.35,0,0,0,72.44,0l34.68-62.93C392.41,322.94,438.5,258,438.5,182.5ZM279.08,406.36a26.35,26.35,0,0,1-46.16,0l-26.58-48.23a182.92,182.92,0,0,0,99.32,0ZM256,350c-92.36,0-167.5-75.14-167.5-167.5S163.64,15,256,15,423.5,90.14,423.5,182.5,348.36,350,256,350Z"/><path class="cls-1" d="M256,35c-81.33,0-147.5,66.17-147.5,147.5S174.67,330,256,330s147.5-66.17,147.5-147.5S337.33,35,256,35Zm0,280c-73.06,0-132.5-59.44-132.5-132.5S182.94,50,256,50s132.5,59.44,132.5,132.5S329.06,315,256,315Z"/><path class="cls-1" d="M256,145a25,25,0,0,0-25,25v25a25,25,0,0,0,50,0V170A25,25,0,0,0,256,145Zm10,50a10,10,0,0,1-20,0V170a10,10,0,0,1,20,0Z"/><path class="cls-1" d="M186,145a25,25,0,0,0-25,25v25a25,25,0,0,0,50,0V170A25,25,0,0,0,186,145Zm10,50a10,10,0,0,1-20,0V170a10,10,0,0,1,20,0Z"/><path class="cls-1" d="M326,145a25,25,0,0,0-25,25v25a25,25,0,0,0,50,0V170A25,25,0,0,0,326,145Zm10,50a10,10,0,0,1-20,0V170a10,10,0,0,1,20,0Z"/><path class="cls-2" d="M73.5,472v32.5A7.5,7.5,0,0,0,81,512H431a7.5,7.5,0,0,0,7.5-7.5V472Z"/><path class="cls-2" d="M382.68,396.6A27.47,27.47,0,0,0,361.8,387H324l-18.64,33.84a56.36,56.36,0,0,1-98.72,0L188,387H150.2a27.47,27.47,0,0,0-20.88,9.6L77.55,457h356.9ZM186,442H171a7.5,7.5,0,0,1,0-15h15a7.5,7.5,0,0,1,0,15Zm155,0H326a7.5,7.5,0,0,1,0-15h15a7.5,7.5,0,0,1,0,15Z"/></svg>