<svg id="OBJECT" xmlns="http://www.w3.org/2000/svg" viewBox="0 0 512 512"><defs><style>.cls-1{fill:#011839;}.cls-2{fill:#7738c8;}</style></defs><path class="cls-1" d="M484.5,107H410.75a7.5,7.5,0,0,0,0,15H484.5a12.28,12.28,0,0,1,3.23.44l-157,181.8a65.69,65.69,0,0,1-99.44,0l-157-181.8A12.28,12.28,0,0,1,77.5,122h73.75a7.5,7.5,0,0,0,0-15H77.5A27.54,27.54,0,0,0,50,134.5V157H27.5A27.54,27.54,0,0,0,0,184.5v300A27.54,27.54,0,0,0,27.5,512h407A27.54,27.54,0,0,0,462,484.5V462h22.5A27.54,27.54,0,0,0,512,434.5v-300A27.54,27.54,0,0,0,484.5,107ZM367.59,284.5,497,134.66V434.34ZM65,434.34V134.66L194.41,284.5ZM447,484.5A12.52,12.52,0,0,1,434.5,497H27.5A12.52,12.52,0,0,1,15,484.5v-300A12.52,12.52,0,0,1,27.5,172H50V434.5A27.54,27.54,0,0,0,77.5,462H447ZM77.5,447a12.28,12.28,0,0,1-3.23-.44L204.32,296l15.61,18.07a80.69,80.69,0,0,0,122.14,0L357.68,296,487.73,446.56a12.28,12.28,0,0,1-3.23.44Z"/><path class="cls-2" d="M281,0A107.5,107.5,0,1,0,388.5,107.5,107.62,107.62,0,0,0,281,0Zm25,158.75H256a7.5,7.5,0,0,1,0-15h17.5V75.89L259.35,83a7.5,7.5,0,0,1-6.7-13.42l25-12.5a7.5,7.5,0,0,1,10.85,6.71v80H306a7.5,7.5,0,0,1,0,15Z"/></svg>