<svg id="OBJECT" xmlns="http://www.w3.org/2000/svg" viewBox="0 0 512 512"><defs><style>.cls-1{fill:#011839;}.cls-2{fill:#7738c8;}</style></defs><path class="cls-1" d="M434.73,435.71l-3-29.3a23.15,23.15,0,0,0-16.49-19.92l-104-31a23.29,23.29,0,0,0-22.81,5.58l-30.68,29.69c-35.92-19.73-75.14-57.17-77.26-59.22S141,290.22,121.23,254.29l29.7-30.68a23.32,23.32,0,0,0,5.57-22.81l-31-104a23.19,23.19,0,0,0-19.93-16.5l-29.31-3a53.54,53.54,0,0,0-50.64,24.78C11,125.63-5.06,164.48,1.52,215.65,9.26,275.9,46.35,338,111.75,400.25,174,465.65,236.11,502.74,296.36,510.48a182.12,182.12,0,0,0,23.4,1.52A170.33,170.33,0,0,0,410,486.36,53.54,53.54,0,0,0,434.73,435.71ZM74.76,92.19l29.31,3a8.22,8.22,0,0,1,7.07,5.86l31,104a8.29,8.29,0,0,1-2,8.1l-4.57,4.72L45.87,101.28A38.65,38.65,0,0,1,74.76,92.19Zm47.73,297.58-.26-.26C-15.19,258.81,8,161.64,36.3,113.43L125,228.79,114.28,239.9a74.86,74.86,0,0,1-4.11-13.11,7.5,7.5,0,0,0-14.7,3c9.09,44.6,71.63,109.54,74.29,112.29l.16.16c2.75,2.66,67.69,65.2,112.29,74.29a7.81,7.81,0,0,0,1.51.15,7.5,7.5,0,0,0,1.49-14.85,74.51,74.51,0,0,1-13.1-4.11L283.21,387l115.36,88.74C350.36,504,253.2,527.19,122.49,389.77Zm288.23,76.36L294.11,376.42l4.71-4.56a8.27,8.27,0,0,1,8.1-2l104,31a8.23,8.23,0,0,1,5.85,7.07l3,29.3A38.61,38.61,0,0,1,410.72,466.13Z"/><path class="cls-2" d="M450,62C402.48,14.5,335-6.84,260,1.93a24.3,24.3,0,0,0-12.25,43.19,24.14,24.14,0,0,0,17.89,5.08c60-7,113.23,9.39,150,46.17s53.18,90.06,46.17,150a24.3,24.3,0,0,0,21.32,26.95,24.46,24.46,0,0,0,2.84.17h0A24.29,24.29,0,0,0,510.07,252C518.84,177,497.5,109.52,450,62Z"/><path class="cls-2" d="M254.8,71.22a24.3,24.3,0,1,0,5.64,48.27c40.57-4.74,76.49,6.24,101.16,30.91s35.65,60.6,30.91,101.16a24.29,24.29,0,0,0,21.31,26.95,24.59,24.59,0,0,0,2.84.17h0a24.29,24.29,0,0,0,24.11-21.48c6.5-55.63-9.42-105.77-44.82-141.16S310.43,64.72,254.8,71.22Z"/><path class="cls-2" d="M249.13,156.41a24.3,24.3,0,1,0,5.63,48.27c16.52-1.93,30.93,2.33,40.58,12s13.91,24.06,12,40.58a24.3,24.3,0,0,0,21.31,26.95,24.63,24.63,0,0,0,2.85.17h0a24.29,24.29,0,0,0,24.11-21.48c3.69-31.59-5.5-60.2-25.88-80.59S280.71,152.72,249.13,156.41Z"/><path class="cls-2" d="M258.48,243.58A24.3,24.3,0,1,0,224.11,278l9.94,9.94a24.3,24.3,0,0,0,34.37-34.37Z"/></svg>