<?xml version="1.0" encoding="UTF-8" standalone="no"?>
<!DOCTYPE svg PUBLIC "-//W3C//DTD SVG 1.1//EN" "http://www.w3.org/Graphics/SVG/1.1/DTD/svg11.dtd">
<svg width="100%" height="100%" viewBox="0 0 848 900" version="1.1" xmlns="http://www.w3.org/2000/svg" xmlns:xlink="http://www.w3.org/1999/xlink" xml:space="preserve" xmlns:serif="http://www.serif.com/" style="fill-rule:evenodd;clip-rule:evenodd;stroke-linejoin:round;stroke-miterlimit:2;">
    <g id="Layer-1" serif:id="Layer 1" transform="matrix(4.16667,0,0,4.16667,0,0)">
        <rect x="0" y="0" width="203.371" height="216" style="fill:white;"/>
        <g transform="matrix(1,0,0,1,45.8681,163.174)">
            <path d="M0,-1.636L0.461,-3.533C0.499,-3.704 0.546,-3.849 0.546,-4.033C0.546,-4.663 -0.221,-4.569 -0.221,-5.017C-0.221,-5.295 0.035,-5.345 0.254,-5.345L1.822,-5.345C2.054,-5.345 2.321,-5.319 2.321,-5.003C2.321,-4.822 2.224,-4.774 2.065,-4.698C1.458,-4.433 1.301,-4.007 1.14,-3.401L0.364,-0.312L0.339,-0.324L0,-1.636ZM-1.496,-5.345L0.097,0.721L-0.669,3.746L-2.115,3.746L-3.695,-2.111L-2.869,-5.345L-1.496,-5.345ZM-4.305,3.746L-5.75,3.746L-7.915,-4.166C-7.976,-4.396 -7.998,-4.481 -8.217,-4.579C-8.401,-4.663 -8.509,-4.723 -8.509,-4.942C-8.509,-5.345 -8.011,-5.345 -7.731,-5.345L-4.912,-5.345C-4.645,-5.345 -4.22,-5.382 -4.22,-4.993C-4.22,-4.579 -4.765,-4.686 -4.765,-4.238C-4.765,-4.128 -4.742,-4.055 -4.705,-3.934L-3.502,0.525L-4.305,3.746Z" style="fill:rgb(35,31,32);fill-rule:nonzero;"/>
        </g>
        <g transform="matrix(1,0,0,1,52.6008,158.352)">
            <path d="M0,8.048C0.573,7.84 0.621,7.475 0.621,7.172L0.621,0.875C0.621,0.573 0.573,0.208 0,0.001L0,-0.704C2.577,-0.474 3.781,1.606 3.781,4.024C3.781,6.443 2.577,8.522 0,8.752L0,8.048ZM-0.546,0.001C-1.119,0.208 -1.165,0.573 -1.165,0.875L-1.165,7.172C-1.165,7.475 -1.119,7.84 -0.546,8.048L-0.546,8.752C-3.124,8.522 -4.326,6.443 -4.326,4.024C-4.326,1.606 -3.124,-0.474 -0.546,-0.704L-0.546,0.001Z" style="fill:rgb(35,31,32);fill-rule:nonzero;"/>
        </g>
        <g transform="matrix(1,0,0,1,63.8206,165.159)">
            <path d="M0,-5.408C-0.195,-6.928 -0.972,-6.454 -0.972,-6.978C-0.972,-7.353 -0.474,-7.33 -0.339,-7.33L1.045,-7.33C1.18,-7.33 1.679,-7.353 1.679,-6.978C1.679,-6.454 0.9,-6.928 0.706,-5.408L0.706,-0.825C0.608,1.181 -0.838,1.91 -1.628,1.921L-1.628,1.205C-0.51,0.864 -0.074,0.232 0,-0.849L0,-5.408ZM-2.176,1.945C-3.136,1.945 -3.878,1.934 -4.716,1.473C-5.811,0.864 -5.956,0.403 -5.956,-0.206L-5.956,-5.969C-5.956,-6.418 -5.942,-6.49 -6.369,-6.622C-6.528,-6.672 -6.636,-6.782 -6.636,-6.952C-6.636,-7.303 -6.237,-7.33 -6.186,-7.33L-2.747,-7.33C-2.699,-7.33 -2.296,-7.303 -2.296,-6.952C-2.296,-6.782 -2.408,-6.672 -2.565,-6.622C-2.99,-6.49 -2.978,-6.418 -2.978,-5.969L-2.978,-0.119C-2.978,0.002 -3.087,0.96 -2.176,1.229L-2.176,1.945Z" style="fill:rgb(35,31,32);fill-rule:nonzero;"/>
        </g>
        <g transform="matrix(1,0,0,1,72.9129,164.746)">
            <path d="M0,-4.717C0,-6.454 -0.997,-5.993 -0.997,-6.552C-0.997,-6.891 -0.594,-6.917 -0.475,-6.917L1.18,-6.917C1.301,-6.917 1.702,-6.891 1.702,-6.552C1.702,-5.993 0.706,-6.454 0.706,-4.717L0.706,-1.762L0.681,-1.762L0,-2.991L0,-4.717ZM0.706,-0.765L0.706,2.174L-1.108,2.174L-5.555,-5.495C-5.752,-5.834 -5.809,-6.016 -6.212,-6.151C-6.417,-6.225 -6.577,-6.271 -6.577,-6.54C-6.577,-6.905 -6.212,-6.905 -5.956,-6.917L-2.833,-6.917L0.706,-0.765ZM-5.628,-4.631L-5.603,-4.631L-4.923,-3.416L-4.923,0.255C-4.729,1.775 -3.95,1.3 -3.95,1.822C-3.95,2.2 -4.448,2.174 -4.582,2.174L-5.968,2.174C-6.103,2.174 -6.6,2.2 -6.6,1.822C-6.6,1.3 -5.822,1.775 -5.628,0.255L-5.628,-4.631Z" style="fill:rgb(35,31,32);fill-rule:nonzero;"/>
        </g>
        <g transform="matrix(1,0,0,1,79.563,166.896)">
            <path d="M0,-9.067C2.066,-9.091 3.793,-7.656 3.937,-4.52C4.071,-1.664 2.017,0.024 0,0.024L0,-0.68C0.741,-0.777 0.777,-1.468 0.777,-1.932L0.777,-7.111C0.777,-7.571 0.741,-8.265 0,-8.359L0,-9.067ZM-0.547,0.024L-3.635,0.024C-3.904,0.024 -4.204,0.002 -4.204,-0.35C-4.204,-0.521 -4.099,-0.63 -3.939,-0.68C-3.514,-0.811 -3.526,-0.885 -3.526,-1.336L-3.526,-7.706C-3.526,-7.887 -3.501,-8.217 -3.733,-8.29C-3.974,-8.375 -4.204,-8.409 -4.204,-8.715C-4.204,-9.032 -3.904,-9.067 -3.659,-9.067L-0.547,-9.067L-0.547,0.024Z" style="fill:rgb(35,31,32);fill-rule:nonzero;"/>
        </g>
        <g transform="matrix(1,0,0,1,88.5338,158.533)">
            <path d="M0,7.684C0.983,7.563 1.737,6.895 2.066,5.921C2.15,5.74 2.224,5.545 2.443,5.545C2.829,5.545 2.794,5.909 2.794,5.958L2.794,8.387L0,8.387L0,7.684ZM0,3.357C0.51,3.223 0.741,2.75 0.849,2.285C0.91,2.08 0.983,1.887 1.239,1.887C1.616,1.887 1.556,2.324 1.556,2.421L1.556,5.046C1.556,5.143 1.616,5.581 1.239,5.581C0.983,5.581 0.91,5.388 0.849,5.181C0.741,4.718 0.51,4.245 0,4.112L0,3.357ZM0,-0.703L2.711,-0.703L2.711,1.765C2.711,1.825 2.696,2.057 2.335,2.057C2.124,2.057 2.066,1.936 2.005,1.751C1.689,0.767 1.068,0.171 0,0.004L0,-0.703ZM-3.756,-0.703L-0.55,-0.703L-0.55,8.387L-3.756,8.387C-3.805,8.387 -4.205,8.364 -4.205,8.013C-4.205,7.842 -4.096,7.734 -3.939,7.684C-3.514,7.552 -3.525,7.479 -3.525,7.028L-3.525,0.658C-3.525,0.209 -3.514,0.135 -3.939,0.004C-4.096,-0.045 -4.205,-0.155 -4.205,-0.327C-4.205,-0.678 -3.805,-0.703 -3.756,-0.703" style="fill:rgb(35,31,32);fill-rule:nonzero;"/>
        </g>
        <g transform="matrix(1,0,0,1,96.3972,166.896)">
            <path d="M0,-9.067C2.066,-9.091 3.792,-7.656 3.938,-4.52C4.071,-1.664 2.019,0.024 0,0.024L0,-0.68C0.742,-0.777 0.778,-1.468 0.778,-1.932L0.778,-7.111C0.778,-7.571 0.742,-8.265 0,-8.359L0,-9.067ZM-0.547,0.024L-3.635,0.024C-3.901,0.024 -4.205,0.002 -4.205,-0.35C-4.205,-0.521 -4.096,-0.63 -3.939,-0.68C-3.514,-0.811 -3.526,-0.885 -3.526,-1.336L-3.526,-7.706C-3.526,-7.887 -3.501,-8.217 -3.732,-8.29C-3.976,-8.375 -4.205,-8.409 -4.205,-8.715C-4.205,-9.032 -3.901,-9.067 -3.659,-9.067L-0.547,-9.067L-0.547,0.024Z" style="fill:rgb(35,31,32);fill-rule:nonzero;"/>
        </g>
        <g transform="matrix(1,0,0,1,113.536,163.174)">
            <path d="M0,-1.636L0.463,-3.533C0.5,-3.704 0.547,-3.849 0.547,-4.033C0.547,-4.663 -0.22,-4.569 -0.22,-5.017C-0.22,-5.295 0.037,-5.345 0.255,-5.345L1.824,-5.345C2.054,-5.345 2.322,-5.319 2.322,-5.003C2.322,-4.822 2.225,-4.774 2.067,-4.698C1.459,-4.433 1.301,-4.007 1.142,-3.401L0.365,-0.312L0.341,-0.324L0,-1.636ZM-1.496,-5.345L0.097,0.721L-0.668,3.746L-2.115,3.746L-3.698,-2.111L-2.869,-5.345L-1.496,-5.345ZM-4.304,3.746L-5.75,3.746L-7.913,-4.166C-7.974,-4.396 -7.997,-4.481 -8.217,-4.579C-8.398,-4.663 -8.507,-4.723 -8.507,-4.942C-8.507,-5.345 -8.012,-5.345 -7.73,-5.345L-4.91,-5.345C-4.644,-5.345 -4.219,-5.382 -4.219,-4.993C-4.219,-4.579 -4.763,-4.686 -4.763,-4.238C-4.763,-4.128 -4.74,-4.055 -4.704,-3.934L-3.501,0.525L-4.304,3.746Z" style="fill:rgb(35,31,32);fill-rule:nonzero;"/>
        </g>
        <g transform="matrix(1,0,0,1,119.493,160.202)">
            <path d="M0,4.361L-1.776,4.361L-1.605,3.657L-0.121,3.657L-1.349,-1.714L-1.191,-2.373L1.493,-2.373L3.318,5.309C3.39,5.651 3.402,5.883 3.744,6.027C3.915,6.099 4.048,6.186 4.048,6.404C4.048,6.734 3.61,6.718 3.38,6.718L0.35,6.718C0.11,6.718 -0.243,6.696 -0.243,6.381C-0.243,6.186 -0.172,6.124 -0.013,6.04C0.303,5.857 0.35,5.772 0.244,5.298L0,4.361ZM-1.301,0.703L-2.443,4.861C-2.637,5.602 -2.467,5.809 -2.056,5.991C-1.86,6.076 -1.689,6.148 -1.689,6.391C-1.689,6.734 -2.078,6.718 -2.322,6.718L-3.72,6.718C-3.962,6.718 -4.402,6.708 -4.402,6.355C-4.402,6.064 -4.194,6.076 -3.927,5.942C-3.67,5.809 -3.343,5.532 -3.113,4.665L-1.653,-0.669L-1.618,-0.669L-1.301,0.703Z" style="fill:rgb(35,31,32);fill-rule:nonzero;"/>
        </g>
        <g transform="matrix(1,0,0,1,128.451,167.08)">
            <path d="M0,-9.251L0.063,-9.251C0.852,-9.251 1.679,-9.275 2.406,-8.924C3.221,-8.521 3.636,-7.855 3.648,-6.929C3.671,-5.53 2.748,-4.921 1.508,-4.631L1.508,-4.606C2.59,-4.448 3.623,-4.131 3.648,-2.845L3.648,-1.774C3.648,-1.666 3.61,-1.422 3.768,-1.422C3.965,-1.422 4,-1.774 4.292,-1.774C4.45,-1.774 4.646,-1.592 4.646,-1.422C4.646,-1.069 4.244,-0.62 3.976,-0.413C3.563,-0.07 3.124,0.024 2.602,0.024C2.079,0.024 1.604,-0.111 1.23,-0.488C0.803,-0.923 0.741,-1.459 0.741,-2.029L0.741,-2.856C0.741,-3.415 0.731,-4.095 0,-4.169L0,-4.885C0.657,-4.947 0.741,-5.349 0.741,-5.943L0.741,-7.415C0.741,-8.024 0.609,-8.315 0,-8.533L0,-9.251ZM-3.525,-7.89C-3.525,-8.339 -3.513,-8.413 -3.938,-8.543C-4.096,-8.593 -4.206,-8.703 -4.206,-8.874C-4.206,-9.226 -3.805,-9.251 -3.756,-9.251L-0.546,-9.251L-0.546,-1.52C-0.546,-1.069 -0.559,-0.995 -0.134,-0.864C0.025,-0.814 0.134,-0.705 0.134,-0.534C0.134,-0.182 -0.267,-0.16 -0.314,-0.16L-3.756,-0.16C-3.805,-0.16 -4.206,-0.182 -4.206,-0.534C-4.206,-0.705 -4.096,-0.814 -3.938,-0.864C-3.513,-0.995 -3.525,-1.069 -3.525,-1.52L-3.525,-7.89Z" style="fill:rgb(35,31,32);fill-rule:nonzero;"/>
        </g>
        <g transform="matrix(1,0,0,1,137.761,167.08)">
            <path d="M0,-9.251L0.062,-9.251C0.853,-9.251 1.68,-9.275 2.409,-8.924C3.223,-8.521 3.636,-7.855 3.648,-6.929C3.671,-5.53 2.748,-4.921 1.509,-4.631L1.509,-4.606C2.59,-4.448 3.624,-4.131 3.648,-2.845L3.648,-1.774C3.648,-1.666 3.612,-1.422 3.77,-1.422C3.965,-1.422 4.002,-1.774 4.292,-1.774C4.45,-1.774 4.646,-1.592 4.646,-1.422C4.646,-1.069 4.244,-0.62 3.976,-0.413C3.563,-0.07 3.126,0.024 2.603,0.024C2.081,0.024 1.604,-0.111 1.229,-0.488C0.803,-0.923 0.743,-1.459 0.743,-2.029L0.743,-2.856C0.743,-3.415 0.73,-4.095 0,-4.169L0,-4.885C0.658,-4.947 0.743,-5.349 0.743,-5.943L0.743,-7.415C0.743,-8.024 0.609,-8.315 0,-8.533L0,-9.251ZM-3.525,-7.89C-3.525,-8.339 -3.511,-8.413 -3.936,-8.543C-4.096,-8.593 -4.204,-8.703 -4.204,-8.874C-4.204,-9.226 -3.803,-9.251 -3.755,-9.251L-0.545,-9.251L-0.545,-1.52C-0.545,-1.069 -0.558,-0.995 -0.132,-0.864C0.025,-0.814 0.137,-0.705 0.137,-0.534C0.137,-0.182 -0.267,-0.16 -0.314,-0.16L-3.755,-0.16C-3.803,-0.16 -4.204,-0.182 -4.204,-0.534C-4.204,-0.705 -4.096,-0.814 -3.936,-0.864C-3.511,-0.995 -3.525,-1.069 -3.525,-1.52L-3.525,-7.89Z" style="fill:rgb(35,31,32);fill-rule:nonzero;"/>
        </g>
        <g transform="matrix(1,0,0,1,146.684,159.189)">
            <path d="M0,6.372C0,6.823 -0.011,6.896 0.414,7.028C0.571,7.078 0.68,7.186 0.68,7.357C0.68,7.708 0.28,7.731 0.228,7.731L-3.209,7.731C-3.256,7.731 -3.659,7.708 -3.659,7.357C-3.659,7.186 -3.549,7.078 -3.391,7.028C-2.965,6.896 -2.978,6.823 -2.978,6.372L-2.978,0.002C-2.978,-0.449 -2.965,-0.521 -3.391,-0.652C-3.549,-0.701 -3.659,-0.811 -3.659,-0.983C-3.659,-1.334 -3.256,-1.359 -3.209,-1.359L0.228,-1.359C0.28,-1.359 0.68,-1.334 0.68,-0.983C0.68,-0.811 0.571,-0.701 0.414,-0.652C-0.011,-0.521 0,-0.449 0,0.002L0,6.372Z" style="fill:rgb(35,31,32);fill-rule:nonzero;"/>
        </g>
        <g transform="matrix(1,0,0,1,152.508,158.352)">
            <path d="M0,8.048C0.57,7.84 0.621,7.475 0.621,7.172L0.621,0.875C0.621,0.573 0.57,0.208 0,0.001L0,-0.704C2.577,-0.474 3.78,1.606 3.78,4.024C3.78,6.443 2.577,8.522 0,8.752L0,8.048ZM-0.547,0.001C-1.119,0.208 -1.168,0.573 -1.168,0.875L-1.168,7.172C-1.168,7.475 -1.119,7.84 -0.547,8.048L-0.547,8.752C-3.124,8.522 -4.327,6.443 -4.327,4.024C-4.327,1.606 -3.124,-0.474 -0.547,-0.704L-0.547,0.001Z" style="fill:rgb(35,31,32);fill-rule:nonzero;"/>
        </g>
        <g transform="matrix(1,0,0,1,161.368,167.08)">
            <path d="M0,-9.251L0.064,-9.251C0.854,-9.251 1.678,-9.275 2.409,-8.924C3.223,-8.521 3.636,-7.855 3.648,-6.929C3.671,-5.53 2.748,-4.921 1.508,-4.631L1.508,-4.606C2.591,-4.448 3.622,-4.131 3.648,-2.845L3.648,-1.774C3.648,-1.666 3.61,-1.422 3.768,-1.422C3.964,-1.422 4.002,-1.774 4.295,-1.774C4.45,-1.774 4.646,-1.592 4.646,-1.422C4.646,-1.069 4.245,-0.62 3.976,-0.413C3.563,-0.07 3.124,0.024 2.602,0.024C2.081,0.024 1.607,-0.111 1.23,-0.488C0.805,-0.923 0.741,-1.459 0.741,-2.029L0.741,-2.856C0.741,-3.415 0.73,-4.095 0,-4.169L0,-4.885C0.658,-4.947 0.741,-5.349 0.741,-5.943L0.741,-7.415C0.741,-8.024 0.609,-8.315 0,-8.533L0,-9.251ZM-3.525,-7.89C-3.525,-8.339 -3.511,-8.413 -3.938,-8.543C-4.094,-8.593 -4.203,-8.703 -4.203,-8.874C-4.203,-9.226 -3.803,-9.251 -3.756,-9.251L-0.545,-9.251L-0.545,-1.52C-0.545,-1.069 -0.557,-0.995 -0.132,-0.864C0.024,-0.814 0.134,-0.705 0.134,-0.534C0.134,-0.182 -0.267,-0.16 -0.314,-0.16L-3.756,-0.16C-3.803,-0.16 -4.203,-0.182 -4.203,-0.534C-4.203,-0.705 -4.094,-0.814 -3.938,-0.864C-3.511,-0.995 -3.525,-1.069 -3.525,-1.52L-3.525,-7.89Z" style="fill:rgb(35,31,32);fill-rule:nonzero;"/>
        </g>
        <g transform="matrix(1,0,0,1,93.4036,138.695)">
            <path d="M0,-59.861C1.44,-59.261 3.079,-58.739 3.488,-57.144C3.749,-56.126 3.683,-54.954 3.685,-53.908C3.685,-53.052 3.741,-48.095 3.486,-46.848C3.373,-48.662 3.281,-55.285 2.75,-56.883C2.183,-58.589 0.878,-58.868 -0.738,-59.972L0,-59.861ZM-0.907,-41.603C-0.401,-42.197 -0.173,-43.149 0.339,-43.589C1.133,-44.269 0.934,-42.993 0.934,-42.993C0.934,-42.993 0.708,-42.199 0.823,-41.633C0.927,-41.11 2.207,-39.631 3.628,-42.472C3.855,-42.925 4.495,-42.776 4.691,-42.242C5.14,-41.02 4.845,-39.851 4.362,-38.953C4.035,-38.347 3.145,-37.652 3.145,-37.652C3.738,-37.952 4.02,-39.336 4.205,-39.868C5.016,-42.192 3.801,-43.2 3.346,-42.399C3.122,-42.006 1.237,-40.669 0.786,-40.64C0.331,-40.612 0.632,-42.489 0.405,-42.575C0.176,-42.661 -0.907,-41.603 -0.907,-41.603M4.443,-69.951C4.443,-69.951 4.995,-70.056 5.251,-70.162C5.506,-70.268 7.251,-70.326 8.163,-70.12C9.582,-69.802 10.576,-69.026 11.525,-68.194C12.393,-67.429 12.877,-66.146 13.181,-65.728C14.118,-64.453 13.606,-64.396 13.351,-64.14C13.109,-63.897 12.536,-63.707 12.324,-63.536C12.114,-63.366 11.062,-63.176 11.062,-63.176C11.132,-63.481 10.994,-63.605 10.892,-64.166C10.503,-66.282 10.361,-66.07 9.693,-67.429C9.341,-68.148 8.355,-68.968 7.909,-69.214C7.552,-69.414 6.229,-69.737 5.825,-69.76C5.421,-69.781 4.443,-69.951 4.443,-69.951M11.087,-62.294C11.087,-62.294 10.83,-60.467 10.918,-61.126C11.004,-61.766 12.34,-62.654 11.879,-61.03C11.493,-59.682 10.706,-58.77 10.706,-58.77C10.715,-57.438 9.991,-56.288 9.991,-56.288C9.801,-56.225 9.617,-56.941 9.481,-57.288C9.46,-57.342 9.934,-57.398 9.908,-57.438C9.879,-57.479 9.46,-57.585 9.46,-57.585C9.46,-57.585 9.344,-58.135 9.396,-58.415C9.453,-58.716 9.57,-58.804 9.889,-58.827C10.209,-58.847 9.727,-58.956 9.664,-59.233C9.602,-59.508 9.78,-59.919 9.568,-60.324C9.356,-60.727 9.236,-60.991 9.236,-60.991L9.367,-62.149L9.693,-61.984C9.693,-61.984 9.575,-61.753 9.631,-61.608C9.69,-61.463 9.918,-61.405 9.968,-61.353C10.064,-61.249 10.092,-61.278 10.232,-61.249C10.287,-61.238 10.448,-61.322 10.468,-61.511C10.476,-61.615 10.526,-61.818 10.533,-61.929C10.54,-62.167 10.369,-62.354 10.369,-62.354L10.84,-62.443L11.087,-62.294ZM17.567,-63.004L16.4,-63.199C16.4,-63.199 16.646,-63.831 16.839,-64.025C17.035,-64.22 17.567,-63.004 17.567,-63.004M-11.64,-30.299C-11.398,-29.133 -11.495,-26.947 -11.444,-26.559C-11.398,-26.17 -13.39,-24.517 -13.727,-24.224C-14.069,-23.933 -14.848,-23.835 -14.848,-24.323C-14.848,-24.807 -13.873,-26.995 -13.534,-27.529C-13.195,-28.064 -13.243,-29.23 -13.195,-30.397C-13.146,-31.564 -12.659,-31.467 -12.027,-31.708C-11.398,-31.953 -11.881,-31.467 -11.64,-30.299M-2.779,-68.222C-3.923,-68.233 -3.639,-67.823 -3.988,-67.611C-4.458,-67.321 -4.981,-67.144 -7.003,-67.144C-8.143,-67.144 -8.307,-66.461 -9.204,-66.255C-10.302,-66 -10.487,-64.861 -11.736,-64.679C-11.786,-64.671 -12.114,-64.748 -12.219,-64.741C-15.085,-64.529 -14.436,-62.891 -15.591,-61.249C-15.748,-61.029 -15.805,-61.418 -16.925,-61.872C-18.539,-62.53 -19.306,-62.61 -21.517,-62.184C-21.892,-61.773 -23.685,-61.573 -24.804,-59.681C-25.888,-57.848 -27.319,-56.362 -26.505,-53.103C-25.683,-49.817 -22.964,-48.719 -22.964,-48.719L-22.054,-47.357C-22.054,-47.357 -20.467,-47.926 -20.127,-48.944C-19.788,-49.965 -19.559,-48.719 -20.127,-48.037C-20.693,-47.357 -22.156,-45.664 -22.41,-44.722C-23.203,-41.773 -23.803,-39.212 -23.757,-38.922C-23.516,-37.389 -24.359,-35.843 -24.875,-32.709C-25.299,-30.126 -22.436,-32.674 -23.911,-29.839C-24.365,-26.24 -23.661,-25.681 -23.118,-24.907C-23.25,-25.095 -22.618,-23.948 -21.816,-23.844C-21.643,-24.737 -22.156,-25.531 -22.156,-25.531C-22.156,-25.531 -22.282,-27.018 -22.197,-27.332C-22.07,-27.798 -21.913,-28.912 -21.73,-29.116C-21.247,-29.656 -21.602,-27.841 -21.176,-27.628C-20.927,-27.504 -20.662,-28.05 -20.652,-28.224C-20.609,-28.905 -20.35,-28.863 -20.51,-29.67C-20.551,-29.882 -20.899,-30.246 -20.88,-30.521C-21.176,-31.669 -20.507,-31.676 -19.897,-31.749C-19.557,-31.792 -19.314,-33.111 -19.302,-34.818C-19.294,-35.829 -17.349,-41.49 -15.479,-43.191C-13.164,-45.296 -12.932,-45.93 -10.533,-49.039C-9.905,-49.85 -8.96,-49.449 -9.817,-48.068C-10.58,-46.836 -13.448,-44.922 -15.024,-42.934C-15.47,-42.373 -17.085,-38.61 -13.947,-36.812C-13.112,-36.334 -13.64,-34.891 -14.918,-31.275C-15.719,-29.016 -16.153,-30.332 -16.471,-29.731C-16.788,-29.13 -17.677,-25.828 -18.285,-23.964C-18.861,-22.194 -20.688,-16.26 -20.688,-16.26L-20.646,-14.834L-23.672,-5.77C-23.672,-5.77 -23.406,-4.692 -22.842,-5.713C-22.151,-6.973 -19.335,-15.039 -19.335,-15.039L-18.428,-15.203L-15.706,-22.41L-14.995,-23.446L-13.867,-23.476C-13.867,-23.476 -13.67,-22.698 -13.109,-23.278C-12.846,-23.55 -13.313,-23.695 -13.012,-24.148C-12.799,-24.471 -12.494,-24.169 -12.189,-24.514C-11.623,-25.155 -11.02,-26.238 -11.02,-26.238L-10.893,-30.512L-9.228,-28.307C-9.228,-28.307 -8.617,-28.593 -7.846,-28.98C-6.906,-29.45 -7.286,-27.815 -7.931,-27.404C-8.316,-25.42 -8.042,-25.565 -7.596,-24.863C-7.402,-23.835 -7.825,-23.843 -7.938,-23.389C-8.052,-22.936 -7.762,-22.065 -8.356,-21.972C-9.696,-21.761 -9.517,-20.433 -9.626,-19.768C-9.74,-19.052 -8.023,-18.855 -8.972,-18.237C-9.738,-17.739 -11.183,-17.244 -11.298,-16.45C-11.411,-15.659 -11.398,-11.64 -11.398,-11.64C-11.398,-11.64 -10.382,-10.829 -10.452,-10.545C-10.524,-10.265 -11.736,-9.711 -11.736,-9.711L-12.303,-6.987C-12.303,-6.987 -13.664,-4.606 -14.459,-3.814C-15.253,-3.021 -16.102,-1.521 -16.102,-1.521C-16.102,-1.521 -17.065,-0.898 -16.839,-0.67C-16.679,-0.511 -16.499,-0.215 -16.499,-0.215L-19.22,2.307C-19.22,2.307 -21.704,5.48 -20.277,7.553C-19.097,9.269 -17.834,9.588 -17.154,9.249C-16.475,8.908 -12.759,7.086 -12.503,5.122C-12.294,3.548 -11.11,4.038 -11.11,4.038L-7.767,0.608L-7.425,-0.639C-7.425,-0.639 -4.6,-2.419 -3.12,-4.156C-1.708,-5.805 1.253,-9.869 1.366,-12.247C1.48,-14.629 3.338,-19.141 3.338,-19.141C3.338,-19.141 5.812,-14.793 5.952,-13.454C6.074,-12.292 5.046,-3.132 5.613,-2.228C6.179,-1.32 7.179,-0.029 6.989,1.595C6.778,3.355 6.279,7.932 6.068,9.794C5.99,10.45 5.152,11.96 5.945,12.641C6.74,13.32 9.667,13.356 10.348,13.131C11.028,12.903 16.762,13.629 18.342,13.276C20.136,12.879 19.884,11.811 19.446,10.586C19.131,9.705 15.705,9.794 15.364,9.225C15.024,8.658 12.791,7.657 13.087,5.175C13.314,3.311 13.096,1.457 13.663,0.608C14.228,-0.242 15.688,-1.021 16.37,-2.704C17.147,-4.622 18.54,-6.856 18.54,-8.804C18.54,-9.763 17.506,-11.899 16.91,-13.95C16.41,-15.67 16.336,-15.807 16.094,-17.501C15.846,-19.221 15.024,-23.135 14.685,-25.473C14.404,-27.38 13.281,-29.165 13.281,-29.165C13.281,-29.165 17.517,-27.293 18.929,-25.983C20.629,-25.879 22.754,-23.941 22.754,-23.941C22.754,-23.941 27.123,-16.535 27.157,-15.719C27.192,-14.908 28.289,-15.039 28.289,-15.039C28.289,-15.039 29.308,-14.246 28.632,-13.11C27.949,-11.98 27.773,-9.463 26.869,-8.443C25.96,-7.423 24.363,-7.152 24.363,-7.152C24.363,-7.152 23.493,-4.701 24.061,-4.361C24.628,-4.019 28.242,-4.355 29.197,-4.949C30.132,-5.53 32.565,-6.551 33.018,-7.345C33.473,-8.137 34.386,-9.455 34.839,-9.228C35.292,-9.002 38.858,-11.305 38.517,-12.439C38.178,-13.575 36.549,-15.471 36.342,-15.834C35.601,-17.11 39.098,-20.096 39.49,-23.287C39.57,-23.964 37.205,-24.035 37.205,-24.035C37.205,-24.035 34.801,-24.353 33.57,-24.666C32.431,-24.957 32.069,-25.875 31.253,-26.322C30.474,-26.746 29.389,-30.811 28.15,-32.403C26.892,-34.016 25.951,-35.257 25.278,-37.186C24.74,-38.732 24.318,-40.506 24.456,-42.354C24.575,-43.962 26.405,-43.544 26.165,-45.097C25.909,-46.728 25.969,-48.2 25.054,-48.719C23.639,-49.517 24.834,-49.61 25.501,-50.448C26.227,-51.367 27.142,-53.061 27.256,-54.198C27.372,-55.331 26.363,-55.861 26.25,-56.654C26.136,-57.449 27.022,-57.429 26.909,-57.995C26.796,-58.562 25.224,-60.378 23.748,-60.831C22.27,-60.364 21.121,-62.468 20.06,-62.644C19,-62.821 18.512,-62.478 18.621,-63.043C18.676,-63.318 17.659,-64.33 17.391,-65.158C17.576,-66.3 18.477,-66.705 18.974,-67.705C19.738,-69.256 19.157,-69.795 18.496,-70.587C17.728,-71.514 15.104,-73.49 14.104,-73.296C12.836,-73.048 11.772,-72.599 9.287,-72.034C8.697,-71.899 7.992,-71.056 6.746,-71.168C5.497,-71.284 4.591,-71.85 3.685,-71.395C2.779,-70.944 2.55,-69.922 1.985,-69.354C1.417,-68.788 0.332,-68.188 -2.779,-68.222" style="fill:rgb(35,31,32);fill-rule:nonzero;"/>
        </g>
        <g transform="matrix(1,0,0,1,46.8265,150.412)">
            <path d="M0,3.71L109.105,3.71L102.984,1.113L98.716,1.113L95.561,0.185L95.004,0L93.521,0.927C93.521,0.927 94.631,0.185 91.478,0.185C88.323,0.185 85.168,0.556 85.168,0.556L84.057,0.185L81.273,0.185L73.109,1.113C73.109,1.113 74.593,0.742 73.481,0.371C72.368,0 69.027,0 69.027,0L67.913,0C67.913,0 66.244,0.556 65.686,0.556L55.667,0.556L52.561,0.979L51.028,1.67L50.1,1.67L41.007,1.299C41.007,1.299 41.563,1.856 39.152,1.856C36.742,1.856 34.884,1.299 34.884,1.299L23.565,2.596L26.164,1.856L23.565,1.856L19.669,2.225C19.669,2.225 19.854,2.413 19.111,2.413C18.37,2.413 9.647,2.969 9.647,2.969L4.268,2.413L0,3.71Z" style="fill:rgb(35,31,32);fill-rule:nonzero;"/>
        </g>
        <g transform="matrix(1,0,0,1,77.5758,179.759)">
            <path d="M0,-9.086C0.586,-9.086 1.103,-9.045 1.511,-8.977C2.834,-8.732 3.651,-7.71 3.651,-6.306C3.651,-4.863 2.806,-3.841 1.403,-3.582C1.008,-3.514 0.53,-3.487 0,-3.487L0,-4.196C0.586,-4.331 0.749,-4.578 0.749,-5.258L0.749,-7.397C0.749,-8.023 0.545,-8.283 0,-8.364L0,-9.086ZM-0.545,-1.266C-0.545,-0.899 -0.49,-0.83 -0.041,-0.722C0.163,-0.68 0.273,-0.557 0.273,-0.381C0.273,-0.203 0.137,-0.053 -0.041,-0.027C-0.15,0 -0.163,0 -0.532,0L-3.515,0C-3.815,0 -3.828,0 -3.937,-0.027C-4.101,-0.068 -4.196,-0.191 -4.196,-0.368C-4.196,-0.531 -4.101,-0.654 -3.924,-0.707C-3.555,-0.83 -3.515,-0.871 -3.515,-1.212L-3.515,-7.873C-3.515,-8.214 -3.555,-8.256 -3.924,-8.377C-4.101,-8.432 -4.196,-8.556 -4.196,-8.718C-4.196,-8.895 -4.101,-9.017 -3.937,-9.059C-3.828,-9.086 -3.815,-9.086 -3.515,-9.086L-0.545,-9.086L-0.545,-1.266Z" style="fill:rgb(35,31,32);fill-rule:nonzero;"/>
        </g>
        <g transform="matrix(1,0,0,1,85.8032,179.936)">
            <path d="M0,-9.263C1.363,-9.249 1.731,-9.209 2.235,-9.004C3.188,-8.623 3.664,-7.928 3.664,-6.921C3.664,-6.238 3.405,-5.639 2.93,-5.272C2.589,-5 2.289,-4.862 1.498,-4.631C2.248,-4.508 2.534,-4.427 2.902,-4.209C3.351,-3.951 3.624,-3.499 3.624,-3.023L3.624,-1.647C3.624,-1.498 3.664,-1.443 3.759,-1.443C3.828,-1.443 3.855,-1.471 3.952,-1.58C4.059,-1.716 4.182,-1.797 4.304,-1.797C4.442,-1.797 4.632,-1.593 4.632,-1.443C4.632,-1.117 4.209,-0.558 3.759,-0.273C3.448,-0.081 3.093,0 2.602,0C1.432,0 0.736,-0.708 0.736,-1.906L0.736,-3.023C0.736,-3.787 0.518,-4.128 0,-4.182L0,-4.904C0.532,-4.972 0.736,-5.216 0.736,-5.816L0.736,-7.574C0.736,-8.132 0.573,-8.35 0,-8.527L0,-9.263ZM-0.518,-1.443C-0.518,-1.076 -0.463,-1.007 -0.013,-0.899C0.191,-0.857 0.3,-0.734 0.3,-0.558C0.3,-0.38 0.164,-0.23 -0.013,-0.204C-0.123,-0.177 -0.135,-0.177 -0.504,-0.177L-3.488,-0.177C-3.787,-0.177 -3.801,-0.177 -3.909,-0.204C-4.072,-0.245 -4.168,-0.368 -4.168,-0.545C-4.168,-0.708 -4.072,-0.831 -3.896,-0.884C-3.527,-1.007 -3.488,-1.048 -3.488,-1.389L-3.488,-8.05C-3.488,-8.391 -3.527,-8.433 -3.896,-8.554C-4.072,-8.609 -4.168,-8.733 -4.168,-8.895C-4.168,-9.072 -4.072,-9.194 -3.909,-9.236C-3.801,-9.263 -3.787,-9.263 -3.488,-9.263L-0.518,-9.263L-0.518,-1.443Z" style="fill:rgb(35,31,32);fill-rule:nonzero;"/>
        </g>
        <g transform="matrix(1,0,0,1,94.8895,179.936)">
            <path d="M0,-9.44C2.248,-9.331 3.774,-7.424 3.774,-4.713C3.774,-2.015 2.316,-0.191 0,0L0,-0.722C0.436,-0.845 0.614,-1.144 0.614,-1.839L0.614,-7.792C0.614,-8.323 0.449,-8.568 0,-8.718L0,-9.44ZM-0.545,-8.718C-0.994,-8.568 -1.157,-8.323 -1.157,-7.792L-1.157,-1.839C-1.157,-1.117 -1.008,-0.845 -0.545,-0.722L-0.545,0C-2.861,-0.191 -4.318,-2.015 -4.318,-4.713C-4.318,-7.424 -2.793,-9.331 -0.545,-9.44L-0.545,-8.718Z" style="fill:rgb(35,31,32);fill-rule:nonzero;"/>
        </g>
        <g transform="matrix(1,0,0,1,101.783,171.464)">
            <path d="M0,7.696C0.341,7.546 0.464,7.301 0.464,6.769L0.464,0.476C0.464,0.095 0.423,0.054 -0.027,-0.055C-0.245,-0.11 -0.354,-0.232 -0.354,-0.41C-0.354,-0.586 -0.217,-0.736 -0.04,-0.764C0.069,-0.777 0.082,-0.777 0.464,-0.79L3.433,-0.79C3.965,-0.79 4.115,-0.71 4.115,-0.423C4.115,-0.26 4.019,-0.137 3.843,-0.081C3.474,0.039 3.433,0.08 3.433,0.422L3.433,5.979C3.433,7.559 2.316,8.486 0.436,8.486C0.314,8.486 0.205,8.486 0,8.473L0,7.696ZM-0.573,8.43C-1.198,8.323 -1.567,8.2 -1.934,7.941C-2.505,7.546 -2.846,6.947 -2.846,6.333C-2.846,5.489 -2.22,4.835 -1.43,4.835C-0.708,4.835 -0.109,5.435 -0.109,6.157C-0.109,6.687 -0.381,7.069 -0.939,7.355C-1.008,7.396 -1.062,7.437 -1.062,7.451C-1.062,7.532 -0.858,7.642 -0.573,7.696L-0.573,8.43Z" style="fill:rgb(35,31,32);fill-rule:nonzero;"/>
        </g>
        <g transform="matrix(1,0,0,1,111.019,171.395)">
            <path d="M0,7.642C0.981,7.547 1.771,6.879 2.085,5.899C2.179,5.611 2.275,5.53 2.451,5.53C2.711,5.53 2.793,5.654 2.793,6.021L2.793,8.364L0,8.364L0,7.642ZM0,3.351C0.49,3.134 0.734,2.834 0.83,2.37C0.913,2.029 1.008,1.921 1.226,1.921C1.485,1.921 1.552,2.043 1.552,2.48L1.552,5.012C1.552,5.422 1.471,5.557 1.226,5.557C1.035,5.557 0.927,5.449 0.858,5.15C0.708,4.563 0.423,4.209 0,4.128L0,3.351ZM2.696,-0.722L2.696,1.648C2.696,1.921 2.601,2.043 2.37,2.043C2.166,2.043 2.097,1.988 2.016,1.743C1.676,0.695 1.008,0.15 0,0.068L0,-0.722L2.696,-0.722ZM-0.558,8.364L-3.529,8.364C-3.828,8.364 -3.842,8.364 -3.952,8.337C-4.113,8.296 -4.209,8.172 -4.209,7.996C-4.209,7.833 -4.113,7.711 -3.937,7.657C-3.569,7.533 -3.529,7.492 -3.529,7.152L-3.529,0.49C-3.529,0.15 -3.569,0.109 -3.937,-0.013C-4.113,-0.069 -4.209,-0.191 -4.209,-0.354C-4.209,-0.532 -4.113,-0.654 -3.952,-0.695C-3.842,-0.722 -3.828,-0.722 -3.529,-0.722L-0.558,-0.722L-0.558,8.364Z" style="fill:rgb(35,31,32);fill-rule:nonzero;"/>
        </g>
        <g transform="matrix(1,0,0,1,119.015,171.313)">
            <path d="M0,7.805C0.953,7.71 1.717,7.083 1.988,6.198C2.085,5.912 2.179,5.803 2.385,5.803C2.589,5.803 2.751,5.98 2.751,6.212C2.751,6.674 2.342,7.37 1.798,7.874C1.239,8.378 0.708,8.595 0,8.623L0,7.805ZM-0.014,-0.805C0.395,-0.749 0.545,-0.709 1.239,-0.45C1.498,-0.354 1.608,-0.326 1.702,-0.326C1.852,-0.326 1.921,-0.382 2.071,-0.668C2.125,-0.749 2.235,-0.818 2.37,-0.818C2.601,-0.818 2.739,-0.668 2.739,-0.395L2.739,2.37C2.739,2.684 2.589,2.874 2.342,2.874C2.139,2.874 2.016,2.738 1.935,2.439C1.621,1.103 0.803,0.069 -0.014,-0.015L-0.014,-0.805ZM-0.545,-0.015C-1.063,0.069 -1.308,0.449 -1.308,1.144L-1.308,6.648C-1.308,7.151 -1.281,7.275 -1.117,7.505C-0.968,7.71 -0.83,7.792 -0.545,7.805L-0.545,8.623C-3.01,8.568 -4.482,6.852 -4.482,4.059C-4.482,2.316 -3.909,0.94 -2.834,0.04C-2.125,-0.532 -1.376,-0.805 -0.545,-0.818L-0.545,-0.015Z" style="fill:rgb(35,31,32);fill-rule:nonzero;"/>
        </g>
        <g transform="matrix(1,0,0,1,130.103,177.007)">
            <path d="M0,-3.582C0,-3.323 -0.164,-3.147 -0.395,-3.147C-0.573,-3.147 -0.708,-3.255 -0.777,-3.459C-0.79,-3.488 -0.83,-3.664 -0.872,-3.977C-1.035,-4.782 -1.322,-5.313 -1.743,-5.517L-1.743,-6.334L0,-6.334L0,-3.582ZM-2.289,1.485C-2.289,1.853 -2.235,1.922 -1.785,2.031C-1.58,2.072 -1.471,2.194 -1.471,2.371C-1.471,2.548 -1.608,2.697 -1.785,2.725C-1.893,2.752 -1.908,2.752 -2.275,2.752L-5.259,2.752C-5.639,2.752 -5.654,2.752 -5.762,2.725C-5.939,2.697 -6.075,2.548 -6.075,2.371C-6.075,2.194 -5.967,2.072 -5.762,2.031C-5.312,1.922 -5.259,1.866 -5.259,1.485L-5.259,-6.334L-2.289,-6.334L-2.289,1.485ZM-5.803,-6.334L-5.803,-5.517C-6.294,-5.271 -6.594,-4.66 -6.743,-3.569C-6.783,-3.309 -6.933,-3.147 -7.152,-3.147C-7.382,-3.147 -7.547,-3.323 -7.547,-3.582L-7.547,-6.334L-5.803,-6.334Z" style="fill:rgb(35,31,32);fill-rule:nonzero;"/>
        </g>
        <g transform="matrix(1,0,0,1,134.536,172.597)">
            <path d="M0,-0.726C0,-0.795 -0.024,-0.852 -0.072,-0.9C-0.12,-0.948 -0.176,-0.971 -0.245,-0.971L-0.628,-0.971L-0.628,-0.481L-0.245,-0.481C-0.176,-0.481 -0.12,-0.504 -0.072,-0.552C-0.024,-0.6 0,-0.657 0,-0.726M-0.882,0.498L-0.882,-1.227L-0.245,-1.227C-0.104,-1.227 0.014,-1.179 0.111,-1.082C0.208,-0.986 0.256,-0.867 0.256,-0.726C0.256,-0.585 0.207,-0.466 0.11,-0.368C0.064,-0.323 0.012,-0.287 -0.047,-0.262L0.256,0.498L-0.054,0.498L-0.341,-0.225L-0.628,-0.225L-0.628,0.498L-0.882,0.498ZM0.685,-1.36C0.413,-1.632 0.08,-1.769 -0.314,-1.769C-0.707,-1.769 -1.039,-1.632 -1.311,-1.36C-1.583,-1.087 -1.718,-0.754 -1.718,-0.361C-1.718,0.031 -1.583,0.364 -1.311,0.635C-1.039,0.907 -0.707,1.043 -0.314,1.043C0.08,1.043 0.413,0.907 0.685,0.635C0.958,0.364 1.094,0.031 1.094,-0.361C1.094,-0.754 0.958,-1.087 0.685,-1.36M0.843,-1.518C1.159,-1.204 1.317,-0.818 1.317,-0.361C1.317,0.093 1.159,0.478 0.843,0.793C0.528,1.108 0.144,1.265 -0.314,1.265C-0.768,1.265 -1.152,1.108 -1.468,0.793C-1.783,0.478 -1.939,0.093 -1.939,-0.361C-1.939,-0.818 -1.783,-1.204 -1.468,-1.518C-1.152,-1.834 -0.768,-1.991 -0.314,-1.991C0.144,-1.991 0.528,-1.834 0.843,-1.518" style="fill:rgb(35,31,32);fill-rule:nonzero;"/>
        </g>
        <g transform="matrix(1,0,0,1,0,0.854)">
            <path d="M10.885,204.701L192.488,204.701L192.488,10.446L10.885,10.446L10.885,204.701ZM193.849,206.062L9.524,206.062L9.524,9.084L193.849,9.084L193.849,206.062Z" style="fill:rgb(35,31,32);fill-rule:nonzero;"/>
        </g>
        <g transform="matrix(-1,0,0,1,203.572,-136.053)">
            <rect x="10.243" y="175.346" width="183.086" height="1.361" style="fill:rgb(35,31,32);"/>
        </g>
        <g transform="matrix(1,0,0,1,27.8211,26.2529)">
            <path d="M0,-2.257L-3.08,-0.02L-1.897,3.617L-4.982,1.372L-8.076,3.617L-6.892,-0.02L-9.964,-2.257L-6.166,-2.257L-4.982,-5.874L-3.805,-2.257L0,-2.257Z" style="fill:rgb(35,31,32);fill-rule:nonzero;"/>
        </g>
        <g transform="matrix(1,0,0,1,37.8686,25.1003)">
            <path d="M0,-0.053C0.899,-0.053 1.47,-0.542 1.47,-1.271L1.47,-1.298C1.47,-2.092 0.899,-2.503 -0.014,-2.503L-1.232,-2.503L-1.232,-0.053L0,-0.053ZM-3.801,-4.661L0.184,-4.661C2.516,-4.661 4.025,-3.455 4.025,-1.416L4.025,-1.39C4.025,0.807 2.344,1.959 0.051,1.959L-1.232,1.959L-1.232,4.608L-3.801,4.608L-3.801,-4.661Z" style="fill:rgb(35,31,32);fill-rule:nonzero;"/>
        </g>
        <g transform="matrix(1,0,0,1,47.2618,25.2607)">
            <path d="M0,-0.373C0.862,-0.373 1.378,-0.797 1.378,-1.472L1.378,-1.497C1.378,-2.24 0.835,-2.61 -0.012,-2.61L-1.707,-2.61L-1.707,-0.373L0,-0.373ZM-4.276,-4.821L0.106,-4.821C1.523,-4.821 2.503,-4.451 3.126,-3.829C3.668,-3.286 3.947,-2.584 3.947,-1.671L3.947,-1.644C3.947,-0.213 3.191,0.726 2.041,1.217L4.252,4.448L1.298,4.448L-0.569,1.641L-1.707,1.641L-1.707,4.448L-4.276,4.448L-4.276,-4.821Z" style="fill:rgb(35,31,32);fill-rule:nonzero;"/>
        </g>
        <g transform="matrix(1,0,0,1,59.5556,25.0475)">
            <path d="M0,0.053L0,0.026C0,-1.325 -0.952,-2.477 -2.369,-2.477C-3.787,-2.477 -4.727,-1.337 -4.727,-0L-4.727,0.026C-4.727,1.363 -3.76,2.53 -2.344,2.53C-0.94,2.53 0,1.39 0,0.053M-7.349,0.053L-7.349,0.026C-7.349,-2.635 -5.204,-4.794 -2.344,-4.794C0.518,-4.794 2.636,-2.661 2.636,-0L2.636,0.026C2.636,2.688 0.491,4.847 -2.369,4.847C-5.23,4.847 -7.349,2.714 -7.349,0.053" style="fill:rgb(35,31,32);fill-rule:nonzero;"/>
        </g>
        <g transform="matrix(1,0,0,1,63.4172,24.676)">
            <path d="M0,0.967L0,-4.237L2.596,-4.237L2.596,0.914C2.596,2.252 3.271,2.887 4.305,2.887C5.351,2.887 6.026,2.277 6.026,0.981L6.026,-4.237L8.62,-4.237L8.62,0.901C8.62,3.88 6.913,5.204 4.278,5.204C1.656,5.204 0,3.868 0,0.967" style="fill:rgb(35,31,32);fill-rule:nonzero;"/>
        </g>
        <g transform="matrix(1,0,0,1,76.1348,27.4444)">
            <path d="M0,-4.741L0,-0.014L1.046,-0.014C2.596,-0.014 3.615,-0.862 3.615,-2.358L3.615,-2.385C3.615,-3.867 2.596,-4.741 1.046,-4.741L0,-4.741ZM-2.569,-7.005L1.019,-7.005C4.317,-7.005 6.237,-5.099 6.237,-2.424L6.237,-2.397C6.237,0.278 4.291,2.264 0.966,2.264L-2.569,2.264L-2.569,-7.005Z" style="fill:rgb(35,31,32);fill-rule:nonzero;"/>
        </g>
        <g transform="matrix(1,0,0,1,86.684,21.8169)">
            <path d="M0,6.514L1.431,4.807C2.358,5.535 3.363,5.918 4.436,5.918C5.138,5.918 5.509,5.681 5.509,5.284L5.509,5.257C5.509,4.86 5.204,4.661 3.932,4.356C1.961,3.906 0.438,3.349 0.438,1.456L0.438,1.429C0.438,-0.292 1.801,-1.537 4.026,-1.537C5.603,-1.537 6.833,-1.113 7.84,-0.305L6.555,1.509C5.707,0.899 4.78,0.596 3.959,0.596C3.337,0.596 3.034,0.848 3.034,1.192L3.034,1.218C3.034,1.642 3.351,1.826 4.649,2.119C6.767,2.582 8.092,3.269 8.092,5.005L8.092,5.032C8.092,6.925 6.595,8.051 4.344,8.051C2.702,8.051 1.152,7.533 0,6.514" style="fill:rgb(35,31,32);fill-rule:nonzero;"/>
        </g>
        <g transform="matrix(1,0,0,1,95.9194,24.676)">
            <path d="M0,0.967L0,-4.237L2.596,-4.237L2.596,0.914C2.596,2.252 3.271,2.887 4.305,2.887C5.351,2.887 6.026,2.277 6.026,0.981L6.026,-4.237L8.62,-4.237L8.62,0.901C8.62,3.88 6.913,5.204 4.278,5.204C1.656,5.204 0,3.868 0,0.967" style="fill:rgb(35,31,32);fill-rule:nonzero;"/>
        </g>
        <g transform="matrix(1,0,0,1,109.869,25.1003)">
            <path d="M0,-0.053C0.899,-0.053 1.47,-0.542 1.47,-1.271L1.47,-1.298C1.47,-2.092 0.899,-2.503 -0.014,-2.503L-1.232,-2.503L-1.232,-0.053L0,-0.053ZM-3.801,-4.661L0.184,-4.661C2.516,-4.661 4.025,-3.455 4.025,-1.416L4.025,-1.39C4.025,0.807 2.344,1.959 0.051,1.959L-1.232,1.959L-1.232,4.608L-3.801,4.608L-3.801,-4.661Z" style="fill:rgb(35,31,32);fill-rule:nonzero;"/>
        </g>
        <g transform="matrix(1,0,0,1,118.787,25.1003)">
            <path d="M0,-0.053C0.899,-0.053 1.47,-0.542 1.47,-1.271L1.47,-1.298C1.47,-2.092 0.899,-2.503 -0.014,-2.503L-1.232,-2.503L-1.232,-0.053L0,-0.053ZM-3.801,-4.661L0.184,-4.661C2.516,-4.661 4.025,-3.455 4.025,-1.416L4.025,-1.39C4.025,0.807 2.344,1.959 0.051,1.959L-1.232,1.959L-1.232,4.608L-3.801,4.608L-3.801,-4.661Z" style="fill:rgb(35,31,32);fill-rule:nonzero;"/>
        </g>
        <g transform="matrix(1,0,0,1,130.948,25.0475)">
            <path d="M0,0.053L0,0.026C0,-1.325 -0.952,-2.477 -2.369,-2.477C-3.787,-2.477 -4.727,-1.337 -4.727,-0L-4.727,0.026C-4.727,1.363 -3.76,2.53 -2.344,2.53C-0.94,2.53 0,1.39 0,0.053M-7.349,0.053L-7.349,0.026C-7.349,-2.635 -5.204,-4.794 -2.344,-4.794C0.518,-4.794 2.636,-2.661 2.636,-0L2.636,0.026C2.636,2.688 0.491,4.847 -2.369,4.847C-5.23,4.847 -7.349,2.714 -7.349,0.053" style="fill:rgb(35,31,32);fill-rule:nonzero;"/>
        </g>
        <g transform="matrix(1,0,0,1,139.191,25.2607)">
            <path d="M0,-0.373C0.862,-0.373 1.378,-0.797 1.378,-1.472L1.378,-1.497C1.378,-2.24 0.835,-2.61 -0.012,-2.61L-1.707,-2.61L-1.707,-0.373L0,-0.373ZM-4.276,-4.821L0.106,-4.821C1.523,-4.821 2.503,-4.451 3.126,-3.829C3.668,-3.286 3.947,-2.584 3.947,-1.671L3.947,-1.644C3.947,-0.213 3.191,0.726 2.041,1.217L4.252,4.448L1.298,4.448L-0.569,1.641L-1.707,1.641L-1.707,4.448L-4.276,4.448L-4.276,-4.821Z" style="fill:rgb(35,31,32);fill-rule:nonzero;"/>
        </g>
        <g transform="matrix(1,0,0,1,146.705,27.456)">
            <path d="M0,-4.765L-2.768,-4.765L-2.768,-7.017L5.351,-7.017L5.351,-4.765L2.569,-4.765L2.569,2.252L0,2.252L0,-4.765Z" style="fill:rgb(35,31,32);fill-rule:nonzero;"/>
        </g>
        <g transform="matrix(1,0,0,1,153.187,29.7083)">
            <path d="M0,-9.269L7.455,-9.269L7.455,-7.097L2.542,-7.097L2.542,-5.68L6.993,-5.68L6.993,-3.654L2.542,-3.654L2.542,-2.184L7.521,-2.184L7.521,0L0,0L0,-9.269Z" style="fill:rgb(35,31,32);fill-rule:nonzero;"/>
        </g>
        <g transform="matrix(1,0,0,1,166.314,25.2607)">
            <path d="M0,-0.373C0.862,-0.373 1.378,-0.797 1.378,-1.472L1.378,-1.497C1.378,-2.24 0.835,-2.61 -0.012,-2.61L-1.707,-2.61L-1.707,-0.373L0,-0.373ZM-4.276,-4.821L0.106,-4.821C1.523,-4.821 2.503,-4.451 3.126,-3.829C3.668,-3.286 3.947,-2.584 3.947,-1.671L3.947,-1.644C3.947,-0.213 3.191,0.726 2.041,1.217L4.252,4.448L1.298,4.448L-0.569,1.641L-1.707,1.641L-1.707,4.448L-4.276,4.448L-4.276,-4.821Z" style="fill:rgb(35,31,32);fill-rule:nonzero;"/>
        </g>
        <g transform="matrix(1,0,0,1,185.109,26.2529)">
            <path d="M0,-2.257L-3.08,-0.02L-1.897,3.617L-4.982,1.372L-8.076,3.617L-6.892,-0.02L-9.964,-2.257L-6.166,-2.257L-4.982,-5.874L-3.805,-2.257L0,-2.257Z" style="fill:rgb(35,31,32);fill-rule:nonzero;"/>
        </g>
    </g>
</svg>
